<mxfile host="app.diagrams.net" modified="2023-09-21T15:43:56.424Z" agent="Mozilla/5.0 (Windows NT 10.0; Win64; x64) AppleWebKit/537.36 (KHTML, like Gecko) Chrome/116.0.0.0 Safari/537.36 OPR/102.0.0.0" etag="_jApTDEhj2KpAWwey5GK" version="21.8.0" type="google">
  <diagram name="Страница — 1" id="dgtlqwbiA9WdouHoPiI3">
    <mxGraphModel grid="1" page="1" gridSize="10" guides="1" tooltips="1" connect="1" arrows="1" fold="1" pageScale="1" pageWidth="827" pageHeight="1169" math="0" shadow="0">
      <root>
        <mxCell id="0" />
        <mxCell id="1" parent="0" />
        <mxCell id="-Mc_ZyiGGu7og0DkpCx9-21" style="edgeStyle=orthogonalEdgeStyle;rounded=0;orthogonalLoop=1;jettySize=auto;html=1;exitX=0.5;exitY=0.5;exitDx=0;exitDy=0;exitPerimeter=0;" edge="1" parent="1" source="-Mc_ZyiGGu7og0DkpCx9-1" target="-Mc_ZyiGGu7og0DkpCx9-9">
          <mxGeometry relative="1" as="geometry" />
        </mxCell>
        <mxCell id="-Mc_ZyiGGu7og0DkpCx9-45" style="edgeStyle=orthogonalEdgeStyle;rounded=0;orthogonalLoop=1;jettySize=auto;html=1;exitX=0.5;exitY=0.5;exitDx=0;exitDy=0;exitPerimeter=0;entryX=0;entryY=0.5;entryDx=0;entryDy=0;" edge="1" parent="1" source="-Mc_ZyiGGu7og0DkpCx9-1" target="-Mc_ZyiGGu7og0DkpCx9-12">
          <mxGeometry relative="1" as="geometry" />
        </mxCell>
        <mxCell id="-Mc_ZyiGGu7og0DkpCx9-1" value="Клиент&lt;br&gt;" style="shape=umlActor;verticalLabelPosition=bottom;verticalAlign=top;html=1;outlineConnect=0;" vertex="1" parent="1">
          <mxGeometry x="710" y="150" width="30" height="60" as="geometry" />
        </mxCell>
        <mxCell id="-Mc_ZyiGGu7og0DkpCx9-33" style="edgeStyle=orthogonalEdgeStyle;rounded=0;orthogonalLoop=1;jettySize=auto;html=1;exitX=1;exitY=0.3333333333333333;exitDx=0;exitDy=0;exitPerimeter=0;entryX=0;entryY=0.5;entryDx=0;entryDy=0;" edge="1" parent="1" source="-Mc_ZyiGGu7og0DkpCx9-2" target="-Mc_ZyiGGu7og0DkpCx9-16">
          <mxGeometry relative="1" as="geometry" />
        </mxCell>
        <mxCell id="-Mc_ZyiGGu7og0DkpCx9-35" style="edgeStyle=orthogonalEdgeStyle;rounded=0;orthogonalLoop=1;jettySize=auto;html=1;exitX=0;exitY=1;exitDx=0;exitDy=0;exitPerimeter=0;entryX=0;entryY=0.5;entryDx=0;entryDy=0;" edge="1" parent="1" source="-Mc_ZyiGGu7og0DkpCx9-2" target="-Mc_ZyiGGu7og0DkpCx9-11">
          <mxGeometry relative="1" as="geometry" />
        </mxCell>
        <mxCell id="-Mc_ZyiGGu7og0DkpCx9-46" style="edgeStyle=orthogonalEdgeStyle;rounded=0;orthogonalLoop=1;jettySize=auto;html=1;exitX=1;exitY=1;exitDx=0;exitDy=0;exitPerimeter=0;entryX=0;entryY=0.5;entryDx=0;entryDy=0;" edge="1" parent="1" source="-Mc_ZyiGGu7og0DkpCx9-2" target="-Mc_ZyiGGu7og0DkpCx9-10">
          <mxGeometry relative="1" as="geometry" />
        </mxCell>
        <mxCell id="-Mc_ZyiGGu7og0DkpCx9-2" value="Турагент&lt;br&gt;" style="shape=umlActor;verticalLabelPosition=bottom;verticalAlign=top;html=1;outlineConnect=0;" vertex="1" parent="1">
          <mxGeometry x="80" y="20" width="30" height="60" as="geometry" />
        </mxCell>
        <mxCell id="A-Pct-9b7qqk5ecnHTXt-1" style="edgeStyle=orthogonalEdgeStyle;rounded=0;orthogonalLoop=1;jettySize=auto;html=1;exitX=1;exitY=1;exitDx=0;exitDy=0;exitPerimeter=0;entryX=0;entryY=0.5;entryDx=0;entryDy=0;" edge="1" parent="1" source="-Mc_ZyiGGu7og0DkpCx9-3" target="-Mc_ZyiGGu7og0DkpCx9-14">
          <mxGeometry relative="1" as="geometry" />
        </mxCell>
        <mxCell id="A-Pct-9b7qqk5ecnHTXt-2" style="edgeStyle=orthogonalEdgeStyle;rounded=0;orthogonalLoop=1;jettySize=auto;html=1;exitX=0;exitY=1;exitDx=0;exitDy=0;exitPerimeter=0;entryX=1;entryY=0.5;entryDx=0;entryDy=0;" edge="1" parent="1" source="-Mc_ZyiGGu7og0DkpCx9-3" target="-Mc_ZyiGGu7og0DkpCx9-15">
          <mxGeometry relative="1" as="geometry" />
        </mxCell>
        <mxCell id="A-Pct-9b7qqk5ecnHTXt-4" style="edgeStyle=orthogonalEdgeStyle;rounded=0;orthogonalLoop=1;jettySize=auto;html=1;exitX=1;exitY=0.3333333333333333;exitDx=0;exitDy=0;exitPerimeter=0;entryX=0;entryY=0.5;entryDx=0;entryDy=0;" edge="1" parent="1" source="-Mc_ZyiGGu7og0DkpCx9-3" target="-Mc_ZyiGGu7og0DkpCx9-18">
          <mxGeometry relative="1" as="geometry" />
        </mxCell>
        <mxCell id="A-Pct-9b7qqk5ecnHTXt-5" style="edgeStyle=orthogonalEdgeStyle;rounded=0;orthogonalLoop=1;jettySize=auto;html=1;exitX=0;exitY=0.3333333333333333;exitDx=0;exitDy=0;exitPerimeter=0;entryX=1;entryY=0.5;entryDx=0;entryDy=0;" edge="1" parent="1" source="-Mc_ZyiGGu7og0DkpCx9-3" target="-Mc_ZyiGGu7og0DkpCx9-13">
          <mxGeometry relative="1" as="geometry" />
        </mxCell>
        <mxCell id="-Mc_ZyiGGu7og0DkpCx9-3" value="Туроператор&amp;nbsp;" style="shape=umlActor;verticalLabelPosition=bottom;verticalAlign=top;html=1;outlineConnect=0;" vertex="1" parent="1">
          <mxGeometry x="420" y="400" width="30" height="60" as="geometry" />
        </mxCell>
        <mxCell id="-Mc_ZyiGGu7og0DkpCx9-9" value="Поиск тура&amp;nbsp;&lt;br&gt;" style="ellipse;whiteSpace=wrap;html=1;" vertex="1" parent="1">
          <mxGeometry x="460" y="140" width="120" height="80" as="geometry" />
        </mxCell>
        <mxCell id="-Mc_ZyiGGu7og0DkpCx9-10" value="поиск информации по туру&amp;nbsp;" style="ellipse;whiteSpace=wrap;html=1;" vertex="1" parent="1">
          <mxGeometry x="250" y="120" width="120" height="80" as="geometry" />
        </mxCell>
        <mxCell id="-Mc_ZyiGGu7og0DkpCx9-11" value="Бронирование тура" style="ellipse;whiteSpace=wrap;html=1;" vertex="1" parent="1">
          <mxGeometry x="60" y="220" width="120" height="80" as="geometry" />
        </mxCell>
        <mxCell id="-Mc_ZyiGGu7og0DkpCx9-12" value="Пожелание на сайте" style="ellipse;whiteSpace=wrap;html=1;" vertex="1" parent="1">
          <mxGeometry x="850" y="140" width="120" height="80" as="geometry" />
        </mxCell>
        <mxCell id="-Mc_ZyiGGu7og0DkpCx9-13" value="Формирование тура" style="ellipse;whiteSpace=wrap;html=1;" vertex="1" parent="1">
          <mxGeometry x="230" y="330" width="120" height="80" as="geometry" />
        </mxCell>
        <mxCell id="-Mc_ZyiGGu7og0DkpCx9-14" value="Добавление тура&amp;nbsp;" style="ellipse;whiteSpace=wrap;html=1;" vertex="1" parent="1">
          <mxGeometry x="650" y="440" width="120" height="80" as="geometry" />
        </mxCell>
        <mxCell id="-Mc_ZyiGGu7og0DkpCx9-15" value="Прогнозирование продаж" style="ellipse;whiteSpace=wrap;html=1;" vertex="1" parent="1">
          <mxGeometry x="170" y="440" width="120" height="80" as="geometry" />
        </mxCell>
        <mxCell id="-Mc_ZyiGGu7og0DkpCx9-16" value="Реализация тура" style="ellipse;whiteSpace=wrap;html=1;" vertex="1" parent="1">
          <mxGeometry x="260" y="-40" width="120" height="80" as="geometry" />
        </mxCell>
        <mxCell id="-Mc_ZyiGGu7og0DkpCx9-18" value="Оформление договора&lt;br&gt;" style="ellipse;whiteSpace=wrap;html=1;" vertex="1" parent="1">
          <mxGeometry x="530" y="330" width="120" height="80" as="geometry" />
        </mxCell>
      </root>
    </mxGraphModel>
  </diagram>
</mxfile>
